<svg width="343" height="326" viewBox="0 0 343 326" fill="none" xmlns="http://www.w3.org/2000/svg">
<path d="M52 35.5L52 116C52 145.174 64.8009 173.153 87.5865 193.782C110.372 214.411 141.276 226 173.5 226C205.724 226 236.628 214.411 259.413 193.782C282.199 173.153 295 145.174 295 116V35.5" stroke="#45B69A" stroke-width="25" stroke-linecap="round" stroke-linejoin="round"/>
<path d="M102 73L172 13L242 73" stroke="#45B69A" stroke-width="25" stroke-linecap="round" stroke-linejoin="round"/>
<path d="M162 83H130C127.791 83 126 84.7909 126 87V119C126 121.209 127.791 123 130 123H162C164.209 123 166 121.209 166 119V87C166 84.7909 164.209 83 162 83Z" fill="#F4B71F"/>
<path d="M213 83H181C178.791 83 177 84.7909 177 87V119C177 121.209 178.791 123 181 123H213C215.209 123 217 121.209 217 119V87C217 84.7909 215.209 83 213 83Z" fill="#F4B71F"/>
<path d="M162 137H130C127.791 137 126 138.791 126 141V173C126 175.209 127.791 177 130 177H162C164.209 177 166 175.209 166 173V141C166 138.791 164.209 137 162 137Z" fill="#F4B71F"/>
<path d="M213 137H181C178.791 137 177 138.791 177 141V173C177 175.209 178.791 177 181 177H213C215.209 177 217 175.209 217 173V141C217 138.791 215.209 137 213 137Z" fill="#F4B71F"/>
<path d="M19.9063 259.88C24.3463 259.88 28.2263 260.76 31.5463 262.52C34.8663 264.28 37.4263 266.76 39.2263 269.96C41.0663 273.12 41.9863 276.78 41.9863 280.94C41.9863 285.06 41.0663 288.72 39.2263 291.92C37.4263 295.12 34.8463 297.6 31.4863 299.36C28.1663 301.12 24.3063 302 19.9063 302H4.12625V259.88H19.9063ZM19.2463 293.12C23.1263 293.12 26.1463 292.06 28.3063 289.94C30.4663 287.82 31.5463 284.82 31.5463 280.94C31.5463 277.06 30.4663 274.04 28.3063 271.88C26.1463 269.72 23.1263 268.64 19.2463 268.64H14.3863V293.12H19.2463ZM79.28 284.72C79.28 285.68 79.22 286.68 79.1 287.72H55.88C56.04 289.8 56.7 291.4 57.86 292.52C59.06 293.6 60.52 294.14 62.24 294.14C64.8 294.14 66.58 293.06 67.58 290.9H78.5C77.94 293.1 76.92 295.08 75.44 296.84C74 298.6 72.18 299.98 69.98 300.98C67.78 301.98 65.32 302.48 62.6 302.48C59.32 302.48 56.4 301.78 53.84 300.38C51.28 298.98 49.28 296.98 47.84 294.38C46.4 291.78 45.68 288.74 45.68 285.26C45.68 281.78 46.38 278.74 47.78 276.14C49.22 273.54 51.22 271.54 53.78 270.14C56.34 268.74 59.28 268.04 62.6 268.04C65.84 268.04 68.72 268.72 71.24 270.08C73.76 271.44 75.72 273.38 77.12 275.9C78.56 278.42 79.28 281.36 79.28 284.72ZM68.78 282.02C68.78 280.26 68.18 278.86 66.98 277.82C65.78 276.78 64.28 276.26 62.48 276.26C60.76 276.26 59.3 276.76 58.1 277.76C56.94 278.76 56.22 280.18 55.94 282.02H68.78ZM82.6527 285.26C82.6527 281.78 83.3527 278.74 84.7527 276.14C86.1927 273.54 88.1727 271.54 90.6927 270.14C93.2527 268.74 96.1727 268.04 99.4527 268.04C103.653 268.04 107.153 269.14 109.953 271.34C112.793 273.54 114.653 276.64 115.533 280.64H104.613C103.693 278.08 101.913 276.8 99.2727 276.8C97.3927 276.8 95.8927 277.54 94.7727 279.02C93.6527 280.46 93.0927 282.54 93.0927 285.26C93.0927 287.98 93.6527 290.08 94.7727 291.56C95.8927 293 97.3927 293.72 99.2727 293.72C101.913 293.72 103.693 292.44 104.613 289.88H115.533C114.653 293.8 112.793 296.88 109.953 299.12C107.113 301.36 103.613 302.48 99.4527 302.48C96.1727 302.48 93.2527 301.78 90.6927 300.38C88.1727 298.98 86.1927 296.98 84.7527 294.38C83.3527 291.78 82.6527 288.74 82.6527 285.26ZM136.261 302.48C132.981 302.48 130.021 301.78 127.381 300.38C124.781 298.98 122.721 296.98 121.201 294.38C119.721 291.78 118.981 288.74 118.981 285.26C118.981 281.82 119.741 278.8 121.261 276.2C122.781 273.56 124.861 271.54 127.501 270.14C130.141 268.74 133.101 268.04 136.381 268.04C139.661 268.04 142.621 268.74 145.261 270.14C147.901 271.54 149.981 273.56 151.501 276.2C153.021 278.8 153.781 281.82 153.781 285.26C153.781 288.7 153.001 291.74 151.441 294.38C149.921 296.98 147.821 298.98 145.141 300.38C142.501 301.78 139.541 302.48 136.261 302.48ZM136.261 293.6C138.221 293.6 139.881 292.88 141.241 291.44C142.641 290 143.341 287.94 143.341 285.26C143.341 282.58 142.661 280.52 141.301 279.08C139.981 277.64 138.341 276.92 136.381 276.92C134.381 276.92 132.721 277.64 131.401 279.08C130.081 280.48 129.421 282.54 129.421 285.26C129.421 287.94 130.061 290 131.341 291.44C132.661 292.88 134.301 293.6 136.261 293.6ZM169.484 274.1C170.684 272.26 172.184 270.82 173.984 269.78C175.784 268.7 177.784 268.16 179.984 268.16V279.02H177.164C174.604 279.02 172.684 279.58 171.404 280.7C170.124 281.78 169.484 283.7 169.484 286.46V302H159.224V268.52H169.484V274.1ZM182.848 285.2C182.848 281.76 183.488 278.74 184.768 276.14C186.088 273.54 187.868 271.54 190.108 270.14C192.348 268.74 194.848 268.04 197.608 268.04C199.968 268.04 202.028 268.52 203.788 269.48C205.588 270.44 206.968 271.7 207.928 273.26V268.52H218.188V302H207.928V297.26C206.928 298.82 205.528 300.08 203.728 301.04C201.968 302 199.908 302.48 197.548 302.48C194.828 302.48 192.348 301.78 190.108 300.38C187.868 298.94 186.088 296.92 184.768 294.32C183.488 291.68 182.848 288.64 182.848 285.2ZM207.928 285.26C207.928 282.7 207.208 280.68 205.768 279.2C204.368 277.72 202.648 276.98 200.608 276.98C198.568 276.98 196.828 277.72 195.388 279.2C193.988 280.64 193.288 282.64 193.288 285.2C193.288 287.76 193.988 289.8 195.388 291.32C196.828 292.8 198.568 293.54 200.608 293.54C202.648 293.54 204.368 292.8 205.768 291.32C207.208 289.84 207.928 287.82 207.928 285.26ZM244.271 293.3V302H239.051C235.331 302 232.431 301.1 230.351 299.3C228.271 297.46 227.231 294.48 227.231 290.36V277.04H223.151V268.52H227.231V260.36H237.491V268.52H244.211V277.04H237.491V290.48C237.491 291.48 237.731 292.2 238.211 292.64C238.691 293.08 239.491 293.3 240.611 293.3H244.271ZM255.146 265.04C253.346 265.04 251.866 264.52 250.706 263.48C249.586 262.4 249.026 261.08 249.026 259.52C249.026 257.92 249.586 256.6 250.706 255.56C251.866 254.48 253.346 253.94 255.146 253.94C256.906 253.94 258.346 254.48 259.466 255.56C260.626 256.6 261.206 257.92 261.206 259.52C261.206 261.08 260.626 262.4 259.466 263.48C258.346 264.52 256.906 265.04 255.146 265.04ZM260.246 268.52V302H249.986V268.52H260.246ZM282.921 302.48C279.641 302.48 276.681 301.78 274.041 300.38C271.441 298.98 269.381 296.98 267.861 294.38C266.381 291.78 265.641 288.74 265.641 285.26C265.641 281.82 266.401 278.8 267.921 276.2C269.441 273.56 271.521 271.54 274.161 270.14C276.801 268.74 279.761 268.04 283.041 268.04C286.321 268.04 289.281 268.74 291.921 270.14C294.561 271.54 296.641 273.56 298.161 276.2C299.681 278.8 300.441 281.82 300.441 285.26C300.441 288.7 299.661 291.74 298.101 294.38C296.581 296.98 294.481 298.98 291.801 300.38C289.161 301.78 286.201 302.48 282.921 302.48ZM282.921 293.6C284.881 293.6 286.541 292.88 287.901 291.44C289.301 290 290.001 287.94 290.001 285.26C290.001 282.58 289.321 280.52 287.961 279.08C286.641 277.64 285.001 276.92 283.041 276.92C281.041 276.92 279.381 277.64 278.061 279.08C276.741 280.48 276.081 282.54 276.081 285.26C276.081 287.94 276.721 290 278.001 291.44C279.321 292.88 280.961 293.6 282.921 293.6ZM326.284 268.16C330.204 268.16 333.324 269.44 335.644 272C338.004 274.52 339.184 278 339.184 282.44V302H328.984V283.82C328.984 281.58 328.404 279.84 327.244 278.6C326.084 277.36 324.524 276.74 322.564 276.74C320.604 276.74 319.044 277.36 317.884 278.6C316.724 279.84 316.144 281.58 316.144 283.82V302H305.884V268.52H316.144V272.96C317.184 271.48 318.584 270.32 320.344 269.48C322.104 268.6 324.084 268.16 326.284 268.16Z" fill="white"/>
</svg>
